<svg width="116" height="55" viewBox="0 0 116 55" fill="none" xmlns="http://www.w3.org/2000/svg">
<g clip-path="url(#clip0_31_17)">
<path d="M27 49C25.3431 49 24 47.6569 24 46L24 22C24 20.3431 25.3431 19 27 19C28.6569 19 30 20.3431 30 22L30 46C30 47.6569 28.6569 49 27 49Z" fill="url(#paint0_linear_31_17)"/>
<path d="M39.2813 7.06249C37.25 7.96874 34.0938 9.71874 30.5313 11.75L13.4688 9.37499C12.5111 9.23957 11.5357 9.30772 10.6063 9.57499L6.90314 10.625C6.59064 10.625 6.59064 10.9375 6.90314 11.0625L21.1531 17.3125C16.3406 20.1875 12.0594 22.8125 10.1844 24C9.84967 24.2097 9.47283 24.3431 9.0807 24.3907C8.68856 24.4382 8.29077 24.3987 7.91564 24.275L4.18439 23.0937C3.59206 22.8814 2.944 22.8836 2.35314 23.1L-0.00311279 24.0625L7.87189 30.625C8.26795 30.9568 8.74946 31.1703 9.26126 31.241C9.77305 31.3117 10.2944 31.2369 10.7656 31.025C14.5281 29.3437 24.4344 24.7812 31.8094 20.9375C48.1844 12.25 49.9969 10.75 49.9969 9.37499C49.9969 7.21874 43.75 4.99999 39.2813 7.06249Z" fill="url(#paint1_linear_31_17)"/>
</g>
<path d="M39.032 49.168C37.784 49.168 36.688 48.936 35.744 48.472C34.816 47.992 34.096 47.336 33.584 46.504C33.072 45.656 32.816 44.664 32.816 43.528C32.816 42.088 33.144 40.808 33.8 39.688C34.456 38.552 35.352 37.664 36.488 37.024C37.64 36.368 38.952 36.04 40.424 36.04C41.688 36.04 42.784 36.272 43.712 36.736C44.656 37.184 45.384 37.832 45.896 38.68C46.408 39.512 46.664 40.504 46.664 41.656C46.664 43.08 46.336 44.36 45.68 45.496C45.024 46.632 44.12 47.528 42.968 48.184C41.832 48.84 40.52 49.168 39.032 49.168ZM39.224 46.6C40.088 46.6 40.848 46.4 41.504 46C42.16 45.584 42.68 45.016 43.064 44.296C43.448 43.576 43.64 42.744 43.64 41.8C43.64 40.808 43.344 40.024 42.752 39.448C42.16 38.872 41.328 38.584 40.256 38.584C39.408 38.584 38.648 38.792 37.976 39.208C37.32 39.608 36.8 40.168 36.416 40.888C36.032 41.608 35.84 42.44 35.84 43.384C35.84 44.392 36.136 45.184 36.728 45.76C37.32 46.32 38.152 46.6 39.224 46.6ZM53.6608 49.168C52.5888 49.168 51.6688 48.944 50.9008 48.496C50.1488 48.032 49.6128 47.368 49.2928 46.504C48.9728 45.624 48.9408 44.552 49.1968 43.288L50.6128 36.184H53.6128L52.1968 43.216C52.0048 44.256 52.1008 45.072 52.4848 45.664C52.8848 46.24 53.6048 46.528 54.6448 46.528C55.7168 46.528 56.6128 46.224 57.3328 45.616C58.0688 45.008 58.5568 44.08 58.7968 42.832L60.1407 36.184H63.1168L60.5728 49H57.7168L58.4368 45.352L58.9168 46.504C58.3088 47.416 57.5408 48.088 56.6128 48.52C55.7008 48.952 54.7168 49.168 53.6608 49.168ZM64.5007 49L67.0447 36.184H69.9007L69.1807 39.832L68.9167 38.776C69.5087 37.736 70.2607 37.024 71.1727 36.64C72.0847 36.24 73.1967 36.04 74.5087 36.04L73.9567 38.896C73.8287 38.864 73.7087 38.848 73.5967 38.848C73.4847 38.832 73.3567 38.824 73.2127 38.824C72.0447 38.824 71.0767 39.136 70.3087 39.76C69.5407 40.368 69.0287 41.344 68.7727 42.688L67.5007 49H64.5007ZM95.1279 49.168C94.0879 49.168 93.1359 48.944 92.2719 48.496C91.4239 48.048 90.7439 47.408 90.2319 46.576C89.7359 45.728 89.4879 44.712 89.4879 43.528C89.4879 42.44 89.6639 41.44 90.0159 40.528C90.3839 39.616 90.8959 38.824 91.5519 38.152C92.2079 37.48 92.9679 36.96 93.8319 36.592C94.7119 36.224 95.6719 36.04 96.7119 36.04C97.7839 36.04 98.7039 36.232 99.4719 36.616C100.256 37 100.848 37.584 101.248 38.368C101.648 39.136 101.832 40.096 101.8 41.248C101.768 42.832 101.48 44.224 100.936 45.424C100.392 46.608 99.6319 47.528 98.6559 48.184C97.6799 48.84 96.5039 49.168 95.1279 49.168ZM95.8959 46.6C96.7599 46.6 97.5199 46.4 98.1759 46C98.8319 45.584 99.3519 45.016 99.7359 44.296C100.12 43.576 100.312 42.744 100.312 41.8C100.312 40.808 100.016 40.024 99.4239 39.448C98.8319 38.872 97.9999 38.584 96.9279 38.584C96.0799 38.584 95.3199 38.792 94.6479 39.208C93.9919 39.608 93.4719 40.168 93.0879 40.888C92.7039 41.608 92.5119 42.44 92.5119 43.384C92.5119 44.376 92.8079 45.16 93.3999 45.736C93.9919 46.312 94.8239 46.6 95.8959 46.6ZM99.0399 49L99.6159 46.072L100.432 42.664L100.84 39.232L101.44 36.184H104.44L101.896 49H99.0399ZM105.821 49L108.365 36.184H111.221L110.501 39.832L110.237 38.776C110.829 37.736 111.581 37.024 112.493 36.64C113.405 36.24 114.517 36.04 115.829 36.04L115.277 38.896C115.149 38.864 115.029 38.848 114.917 38.848C114.805 38.832 114.677 38.824 114.533 38.824C113.365 38.824 112.397 39.136 111.629 39.76C110.861 40.368 110.349 41.344 110.093 42.688L108.821 49H105.821Z" fill="#008DDA"/>
<path d="M80.0581 49.24C79.1781 49.24 78.3221 49.152 77.4901 48.976C76.6741 48.8 75.9221 48.568 75.2341 48.28C74.5621 47.976 74.0021 47.64 73.5541 47.272L74.8741 44.824C75.3381 45.208 75.8661 45.536 76.4581 45.808C77.0501 46.08 77.6741 46.288 78.3301 46.432C79.0021 46.576 79.6741 46.648 80.3461 46.648C81.1621 46.648 81.8741 46.552 82.4821 46.36C83.0901 46.168 83.5541 45.896 83.8741 45.544C84.2101 45.192 84.3781 44.768 84.3781 44.272C84.3781 43.824 84.2261 43.464 83.9221 43.192C83.6181 42.904 83.2101 42.672 82.6981 42.496C82.2021 42.304 81.6501 42.128 81.0421 41.968C80.4501 41.792 79.8501 41.6 79.2421 41.392C78.6341 41.168 78.0821 40.896 77.5861 40.576C77.0901 40.24 76.6821 39.816 76.3621 39.304C76.0581 38.792 75.9061 38.152 75.9061 37.384C75.9061 36.28 76.2101 35.328 76.8181 34.528C77.4421 33.712 78.2981 33.08 79.3861 32.632C80.4901 32.184 81.7701 31.96 83.2261 31.96C84.3141 31.96 85.3461 32.08 86.3221 32.32C87.2981 32.56 88.1381 32.912 88.8421 33.376L87.6181 35.848C86.9941 35.432 86.2901 35.112 85.5061 34.888C84.7221 34.664 83.9061 34.552 83.0581 34.552C82.2261 34.552 81.5061 34.656 80.8981 34.864C80.2901 35.072 79.8261 35.36 79.5061 35.728C79.1861 36.096 79.0181 36.528 79.0021 37.024C79.0021 37.488 79.1541 37.864 79.4581 38.152C79.7621 38.424 80.1621 38.656 80.6581 38.848C81.1541 39.04 81.7061 39.224 82.3141 39.4C82.9221 39.56 83.5221 39.744 84.1141 39.952C84.7221 40.16 85.2821 40.424 85.7941 40.744C86.3061 41.064 86.7141 41.472 87.0181 41.968C87.3221 42.448 87.4741 43.056 87.4741 43.792C87.4741 44.896 87.1621 45.856 86.5381 46.672C85.9301 47.488 85.0661 48.12 83.9461 48.568C82.8421 49.016 81.5461 49.24 80.0581 49.24Z" fill="#ACE2E1"/>
<defs>
<linearGradient id="paint0_linear_31_17" x1="27" y1="49" x2="26.9621" y2="18.9945" gradientUnits="userSpaceOnUse">
<stop stop-color="#41C9E2"/>
<stop offset="1" stop-color="#ACE2E1"/>
</linearGradient>
<linearGradient id="paint1_linear_31_17" x1="26.5" y1="3" x2="16" y2="44.5" gradientUnits="userSpaceOnUse">
<stop stop-color="#008DDA"/>
<stop offset="0.316789" stop-color="#ACE2E1"/>
<stop offset="1" stop-color="#41C9E2"/>
</linearGradient>
<clipPath id="clip0_31_17">
<rect width="50" height="50" fill="white"/>
</clipPath>
</defs>
</svg>
