<svg width="152" height="82" viewBox="0 0 152 82" fill="none" xmlns="http://www.w3.org/2000/svg">
<ellipse cx="76" cy="41" rx="76" ry="41" fill="white"/>
<g clip-path="url(#clip0_31_28)">
<path d="M45 58C43.3431 58 42 56.6569 42 55L42 31C42 29.3431 43.3431 28 45 28C46.6569 28 48 29.3431 48 31L48 55C48 56.6569 46.6569 58 45 58Z" fill="url(#paint0_linear_31_28)"/>
<path d="M57.2813 16.0625C55.25 16.9687 52.0938 18.7187 48.5313 20.75L31.4688 18.375C30.5111 18.2396 29.5357 18.3077 28.6063 18.575L24.9031 19.625C24.5906 19.625 24.5906 19.9375 24.9031 20.0625L39.1531 26.3125C34.3406 29.1875 30.0594 31.8125 28.1844 33C27.8497 33.2097 27.4728 33.3431 27.0807 33.3907C26.6886 33.4382 26.2908 33.3987 25.9156 33.275L22.1844 32.0937C21.5921 31.8814 20.944 31.8836 20.3531 32.1L17.9969 33.0625L25.8719 39.625C26.2679 39.9568 26.7495 40.1703 27.2613 40.241C27.7731 40.3117 28.2944 40.2369 28.7656 40.025C32.5281 38.3437 42.4344 33.7812 49.8094 29.9375C66.1844 21.25 67.9969 19.75 67.9969 18.375C67.9969 16.2187 61.75 14 57.2813 16.0625Z" fill="url(#paint1_linear_31_28)"/>
</g>
<path d="M57.032 58.168C55.784 58.168 54.688 57.936 53.744 57.472C52.816 56.992 52.096 56.336 51.584 55.504C51.072 54.656 50.816 53.664 50.816 52.528C50.816 51.088 51.144 49.808 51.8 48.688C52.456 47.552 53.352 46.664 54.488 46.024C55.64 45.368 56.952 45.04 58.424 45.04C59.688 45.04 60.784 45.272 61.712 45.736C62.656 46.184 63.384 46.832 63.896 47.68C64.408 48.512 64.664 49.504 64.664 50.656C64.664 52.08 64.336 53.36 63.68 54.496C63.024 55.632 62.12 56.528 60.968 57.184C59.832 57.84 58.52 58.168 57.032 58.168ZM57.224 55.6C58.088 55.6 58.848 55.4 59.504 55C60.16 54.584 60.68 54.016 61.064 53.296C61.448 52.576 61.64 51.744 61.64 50.8C61.64 49.808 61.344 49.024 60.752 48.448C60.16 47.872 59.328 47.584 58.256 47.584C57.408 47.584 56.648 47.792 55.976 48.208C55.32 48.608 54.8 49.168 54.416 49.888C54.032 50.608 53.84 51.44 53.84 52.384C53.84 53.392 54.136 54.184 54.728 54.76C55.32 55.32 56.152 55.6 57.224 55.6ZM71.6608 58.168C70.5888 58.168 69.6688 57.944 68.9008 57.496C68.1488 57.032 67.6128 56.368 67.2928 55.504C66.9728 54.624 66.9408 53.552 67.1968 52.288L68.6128 45.184H71.6128L70.1968 52.216C70.0048 53.256 70.1008 54.072 70.4848 54.664C70.8848 55.24 71.6048 55.528 72.6448 55.528C73.7168 55.528 74.6128 55.224 75.3328 54.616C76.0688 54.008 76.5568 53.08 76.7968 51.832L78.1407 45.184H81.1168L78.5728 58H75.7168L76.4368 54.352L76.9168 55.504C76.3088 56.416 75.5408 57.088 74.6128 57.52C73.7008 57.952 72.7168 58.168 71.6608 58.168ZM82.5007 58L85.0447 45.184H87.9007L87.1807 48.832L86.9167 47.776C87.5087 46.736 88.2607 46.024 89.1727 45.64C90.0847 45.24 91.1967 45.04 92.5087 45.04L91.9567 47.896C91.8287 47.864 91.7087 47.848 91.5967 47.848C91.4847 47.832 91.3567 47.824 91.2127 47.824C90.0447 47.824 89.0767 48.136 88.3087 48.76C87.5407 49.368 87.0287 50.344 86.7727 51.688L85.5007 58H82.5007ZM113.128 58.168C112.088 58.168 111.136 57.944 110.272 57.496C109.424 57.048 108.744 56.408 108.232 55.576C107.736 54.728 107.488 53.712 107.488 52.528C107.488 51.44 107.664 50.44 108.016 49.528C108.384 48.616 108.896 47.824 109.552 47.152C110.208 46.48 110.968 45.96 111.832 45.592C112.712 45.224 113.672 45.04 114.712 45.04C115.784 45.04 116.704 45.232 117.472 45.616C118.256 46 118.848 46.584 119.248 47.368C119.648 48.136 119.832 49.096 119.8 50.248C119.768 51.832 119.48 53.224 118.936 54.424C118.392 55.608 117.632 56.528 116.656 57.184C115.68 57.84 114.504 58.168 113.128 58.168ZM113.896 55.6C114.76 55.6 115.52 55.4 116.176 55C116.832 54.584 117.352 54.016 117.736 53.296C118.12 52.576 118.312 51.744 118.312 50.8C118.312 49.808 118.016 49.024 117.424 48.448C116.832 47.872 116 47.584 114.928 47.584C114.08 47.584 113.32 47.792 112.648 48.208C111.992 48.608 111.472 49.168 111.088 49.888C110.704 50.608 110.512 51.44 110.512 52.384C110.512 53.376 110.808 54.16 111.4 54.736C111.992 55.312 112.824 55.6 113.896 55.6ZM117.04 58L117.616 55.072L118.432 51.664L118.84 48.232L119.44 45.184H122.44L119.896 58H117.04ZM123.821 58L126.365 45.184H129.221L128.501 48.832L128.237 47.776C128.829 46.736 129.581 46.024 130.493 45.64C131.405 45.24 132.517 45.04 133.829 45.04L133.277 47.896C133.149 47.864 133.029 47.848 132.917 47.848C132.805 47.832 132.677 47.824 132.533 47.824C131.365 47.824 130.397 48.136 129.629 48.76C128.861 49.368 128.349 50.344 128.093 51.688L126.821 58H123.821Z" fill="#008DDA"/>
<path d="M98.0581 58.24C97.1781 58.24 96.3221 58.152 95.4901 57.976C94.6741 57.8 93.9221 57.568 93.2341 57.28C92.5621 56.976 92.0021 56.64 91.5541 56.272L92.8741 53.824C93.3381 54.208 93.8661 54.536 94.4581 54.808C95.0501 55.08 95.6741 55.288 96.3301 55.432C97.0021 55.576 97.6741 55.648 98.3461 55.648C99.1621 55.648 99.8741 55.552 100.482 55.36C101.09 55.168 101.554 54.896 101.874 54.544C102.21 54.192 102.378 53.768 102.378 53.272C102.378 52.824 102.226 52.464 101.922 52.192C101.618 51.904 101.21 51.672 100.698 51.496C100.202 51.304 99.6501 51.128 99.0421 50.968C98.4501 50.792 97.8501 50.6 97.2421 50.392C96.6341 50.168 96.0821 49.896 95.5861 49.576C95.0901 49.24 94.6821 48.816 94.3621 48.304C94.0581 47.792 93.9061 47.152 93.9061 46.384C93.9061 45.28 94.2101 44.328 94.8181 43.528C95.4421 42.712 96.2981 42.08 97.3861 41.632C98.4901 41.184 99.7701 40.96 101.226 40.96C102.314 40.96 103.346 41.08 104.322 41.32C105.298 41.56 106.138 41.912 106.842 42.376L105.618 44.848C104.994 44.432 104.29 44.112 103.506 43.888C102.722 43.664 101.906 43.552 101.058 43.552C100.226 43.552 99.5061 43.656 98.8981 43.864C98.2901 44.072 97.8261 44.36 97.5061 44.728C97.1861 45.096 97.0181 45.528 97.0021 46.024C97.0021 46.488 97.1541 46.864 97.4581 47.152C97.7621 47.424 98.1621 47.656 98.6581 47.848C99.1541 48.04 99.7061 48.224 100.314 48.4C100.922 48.56 101.522 48.744 102.114 48.952C102.722 49.16 103.282 49.424 103.794 49.744C104.306 50.064 104.714 50.472 105.018 50.968C105.322 51.448 105.474 52.056 105.474 52.792C105.474 53.896 105.162 54.856 104.538 55.672C103.93 56.488 103.066 57.12 101.946 57.568C100.842 58.016 99.5461 58.24 98.0581 58.24Z" fill="#ACE2E1"/>
<defs>
<linearGradient id="paint0_linear_31_28" x1="45" y1="58" x2="44.9621" y2="27.9945" gradientUnits="userSpaceOnUse">
<stop stop-color="#41C9E2"/>
<stop offset="1" stop-color="#ACE2E1"/>
</linearGradient>
<linearGradient id="paint1_linear_31_28" x1="44.5" y1="12" x2="34" y2="53.5" gradientUnits="userSpaceOnUse">
<stop stop-color="#008DDA"/>
<stop offset="0.316789" stop-color="#ACE2E1"/>
<stop offset="1" stop-color="#41C9E2"/>
</linearGradient>
<clipPath id="clip0_31_28">
<rect width="50" height="50" fill="white" transform="translate(18 9)"/>
</clipPath>
</defs>
</svg>
